<svg width="514" height="371" viewBox="0 0 514 371" fill="none" xmlns="http://www.w3.org/2000/svg">
<path fill-rule="evenodd" clip-rule="evenodd" d="M250.732 8.75C247.742 13.563 244.401 19.075 243.308 21C239.838 27.112 215.174 66.994 206.512 80.5C185.77 112.843 181.298 121.419 177.998 135.182C175.266 146.577 175.297 146.794 179.74 147.534C181.803 147.877 186.671 148.947 190.559 149.911L197.629 151.663L199.947 145.199C202.921 136.906 210.142 122.23 222.679 99C228.17 88.825 238.017 70.263 244.561 57.75C251.105 45.237 256.691 35.008 256.975 35.017C257.258 35.026 258.576 37.614 259.903 40.767C261.23 43.92 269.306 59.775 277.849 76C300.71 119.419 310.412 138.766 312.701 145.5C313.966 149.222 315.235 151.383 316.043 151.191C316.759 151.021 321.641 149.998 326.891 148.918C332.141 147.837 336.8 146.59 337.244 146.146C338.378 145.012 334.484 128.991 331.156 121.094C329.628 117.467 318.924 99.65 307.37 81.5C287.265 49.915 265.414 14.841 259.557 4.75C258.041 2.137 256.658 0 256.484 0C256.311 0 253.722 3.938 250.732 8.75ZM35.1024 116.564C19.2794 120.867 6.86742 132.958 1.95442 148.855C-0.443581 156.614 -0.672582 170.406 1.47642 177.643C3.33642 183.903 9.55242 193.615 15.5204 199.583C20.9904 205.052 32.2844 210.662 40.5524 212.016C48.5894 213.332 137.321 213.279 147.906 211.951C152.507 211.374 160.483 209.553 165.631 207.904L174.992 204.905L173.319 201.703C172.399 199.941 170.644 195.575 169.419 192C167.653 186.845 166.809 185.561 165.341 185.795C164.323 185.958 136.94 186.046 104.49 185.993L45.4904 185.895L40.3094 183.534C25.1834 176.643 23.1424 155.036 36.7364 145.7C43.6674 140.939 45.7014 140.811 108.673 141.167L167.638 141.5L169.397 133.5C170.364 129.1 171.369 124.6 171.63 123.5C172.047 121.742 170.919 121.137 162.297 118.5L152.49 115.5L96.4904 115.3C49.9624 115.133 39.5794 115.347 35.1024 116.564ZM352.496 118.148C346.449 119.802 341.378 121.279 341.227 121.43C341.075 121.582 341.842 125.259 342.932 129.603C344.021 133.946 345.175 138.785 345.496 140.355C345.996 142.798 346.399 143.094 348.285 142.41C349.498 141.97 376.066 141.452 407.325 141.259C470.148 140.87 470.866 140.929 478.269 147.062C484.162 151.945 486.272 156.996 485.813 165.12C485.347 173.373 481.85 179.126 474.946 183L470.49 185.5H407.787H345.085L341.787 194.499C339.974 199.448 338.354 203.794 338.187 204.157C337.809 204.981 347.522 208.658 355.49 210.708C363.625 212.8 464.749 213.294 474.99 211.291C493.178 207.735 507.472 193.904 512.505 174.992C515.387 164.161 513.872 151.62 508.369 140.761C505.108 134.325 495.186 124.387 488.415 120.774C477.79 115.104 476.417 114.994 417.53 115.071L363.49 115.142L352.496 118.148ZM255.145 161.789C253.001 193.71 250.252 208.726 245.615 213.846C238.189 222.044 212.494 205.406 203.584 186.631C201.607 182.465 199.99 178.144 199.99 177.028C199.99 175.913 199.431 175 198.747 175C195.47 175 175.99 180.615 175.99 181.56C175.99 184.127 179.473 194.01 182.489 199.999C190.07 215.053 202.651 228.049 216.58 235.217C227.686 240.933 233.343 242.613 246.428 244.086C276.158 247.431 303.101 236.385 321.622 213.257C328.158 205.095 331.413 199.082 334.937 188.658L337.753 180.325L327.122 177.913C321.274 176.586 315.904 175.5 315.189 175.5C314.473 175.5 312.841 178.073 311.563 181.219C307.408 191.441 301.256 199.551 291.741 207.348C281.676 215.595 270.366 218.467 266.078 213.864C262.365 209.879 259.98 194.364 257.957 161.037C257.373 151.432 256.785 143.462 256.649 143.325C256.512 143.189 255.836 151.498 255.145 161.789ZM119.111 152.649C110.042 157.28 109.715 169.269 118.544 173.459C121.794 175.001 125.115 175.141 149.338 174.758C173.914 174.369 177.676 174.077 188.99 171.68C204.06 168.488 222.22 162.509 219.404 161.666C218.351 161.351 212.247 159.709 205.838 158.017C184.545 152.396 179.472 151.79 149.99 151.342C125.403 150.968 122.132 151.107 119.111 152.649ZM338.99 151.699C330.095 152.661 312.484 156.22 302.49 159.075C296.44 160.804 291.383 162.313 291.253 162.429C290.495 163.106 311.464 169.267 322.49 171.607C334.54 174.164 337.56 174.395 363.834 174.765C394.25 175.194 396.324 174.934 400.024 170.23C404.179 164.948 401.426 155.859 394.707 152.67C391.687 151.237 387.736 151.023 366.839 151.16C353.447 151.248 340.915 151.49 338.99 151.699Z" fill="black"/>
<path d="M57.9261 367V301.545H73.3523V367H57.9261ZM65.6818 292.256C63.2386 292.256 61.1364 291.446 59.375 289.827C57.6136 288.179 56.733 286.205 56.733 283.903C56.733 281.574 57.6136 279.599 59.375 277.98C61.1364 276.332 63.2386 275.509 65.6818 275.509C68.1534 275.509 70.2557 276.332 71.9886 277.98C73.75 279.599 74.6307 281.574 74.6307 283.903C74.6307 286.205 73.75 288.179 71.9886 289.827C70.2557 291.446 68.1534 292.256 65.6818 292.256ZM104.641 328.648V367H89.2152V301.545H103.96V312.668H104.727C106.232 309.003 108.633 306.091 111.928 303.932C115.252 301.773 119.357 300.693 124.244 300.693C128.761 300.693 132.695 301.659 136.048 303.591C139.428 305.523 142.042 308.321 143.888 311.986C145.763 315.651 146.687 320.097 146.658 325.324V367H131.232V327.71C131.232 323.335 130.096 319.912 127.823 317.44C125.579 314.969 122.468 313.733 118.491 313.733C115.792 313.733 113.391 314.33 111.289 315.523C109.215 316.687 107.582 318.378 106.388 320.594C105.224 322.81 104.641 325.494 104.641 328.648ZM176.403 346.46L176.36 327.838H178.832L202.354 301.545H220.38L191.445 333.761H188.249L176.403 346.46ZM162.34 367V279.727H177.766V367H162.34ZM203.42 367L182.113 337.213L192.511 326.347L221.871 367H203.42ZM231.342 367V279.727H247.152V353.747H285.589V367H231.342ZM298.629 367V301.545H314.055V367H298.629ZM306.385 292.256C303.942 292.256 301.839 291.446 300.078 289.827C298.317 288.179 297.436 286.205 297.436 283.903C297.436 281.574 298.317 279.599 300.078 277.98C301.839 276.332 303.942 275.509 306.385 275.509C308.857 275.509 310.959 276.332 312.692 277.98C314.453 279.599 315.334 281.574 315.334 283.903C315.334 286.205 314.453 288.179 312.692 289.827C310.959 291.446 308.857 292.256 306.385 292.256ZM345.344 328.648V367H329.918V301.545H344.663V312.668H345.43C346.935 309.003 349.336 306.091 352.631 303.932C355.955 301.773 360.06 300.693 364.947 300.693C369.464 300.693 373.398 301.659 376.751 303.591C380.131 305.523 382.745 308.321 384.592 311.986C386.467 315.651 387.39 320.097 387.362 325.324V367H371.935V327.71C371.935 323.335 370.799 319.912 368.526 317.44C366.282 314.969 363.171 313.733 359.194 313.733C356.495 313.733 354.094 314.33 351.992 315.523C349.918 316.687 348.285 318.378 347.092 320.594C345.927 322.81 345.344 325.494 345.344 328.648ZM417.106 346.46L417.063 327.838H419.535L443.058 301.545H461.083L432.148 333.761H428.952L417.106 346.46ZM403.043 367V279.727H418.469V367H403.043ZM444.123 367L422.816 337.213L433.214 326.347L462.575 367H444.123Z" fill="black"/>
</svg>
